<?xml version="1.0" standalone="no"?>
<svg xmlns:xlink="http://www.w3.org/1999/xlink" id="wave" style="transform:rotate(180deg); transition: 0.3s" viewBox="0 0 1440 490" version="1.1" xmlns="http://www.w3.org/2000/svg"><defs><linearGradient id="sw-gradient-0" x1="0" x2="0" y1="1" y2="0"><stop stop-color="rgba(243, 106, 62, 1)" offset="0%"/><stop stop-color="rgba(10.981, 8.733, 3.765, 1)" offset="100%"/></linearGradient></defs><path style="transform:translate(0, 0px); opacity:1" fill="url(#sw-gradient-0)" d="M0,441L90,294L180,441L270,343L360,49L450,196L540,49L630,147L720,343L810,294L900,147L990,49L1080,392L1170,0L1260,245L1350,49L1440,392L1530,392L1620,196L1710,245L1800,147L1890,0L1980,343L2070,147L2160,343L2160,490L2070,490L1980,490L1890,490L1800,490L1710,490L1620,490L1530,490L1440,490L1350,490L1260,490L1170,490L1080,490L990,490L900,490L810,490L720,490L630,490L540,490L450,490L360,490L270,490L180,490L90,490L0,490Z"/><defs><linearGradient id="sw-gradient-1" x1="0" x2="0" y1="1" y2="0"><stop stop-color="rgba(66.09, 41.876, 111.159, 1)" offset="0%"/><stop stop-color="rgba(255, 179, 11, 1)" offset="100%"/></linearGradient></defs><path style="transform:translate(0, 50px); opacity:0.9" fill="url(#sw-gradient-1)" d="M0,245L90,98L180,147L270,196L360,343L450,147L540,49L630,98L720,392L810,343L900,196L990,294L1080,392L1170,98L1260,147L1350,245L1440,392L1530,98L1620,441L1710,294L1800,343L1890,49L1980,245L2070,343L2160,441L2160,490L2070,490L1980,490L1890,490L1800,490L1710,490L1620,490L1530,490L1440,490L1350,490L1260,490L1170,490L1080,490L990,490L900,490L810,490L720,490L630,490L540,490L450,490L360,490L270,490L180,490L90,490L0,490Z"/><defs><linearGradient id="sw-gradient-2" x1="0" x2="0" y1="1" y2="0"><stop stop-color="rgba(243, 106, 62, 1)" offset="0%"/><stop stop-color="rgba(255, 179, 11, 1)" offset="100%"/></linearGradient></defs><path style="transform:translate(0, 100px); opacity:0.8" fill="url(#sw-gradient-2)" d="M0,98L90,196L180,294L270,441L360,98L450,49L540,343L630,49L720,294L810,0L900,196L990,98L1080,245L1170,245L1260,196L1350,392L1440,343L1530,245L1620,343L1710,343L1800,49L1890,147L1980,294L2070,245L2160,392L2160,490L2070,490L1980,490L1890,490L1800,490L1710,490L1620,490L1530,490L1440,490L1350,490L1260,490L1170,490L1080,490L990,490L900,490L810,490L720,490L630,490L540,490L450,490L360,490L270,490L180,490L90,490L0,490Z"/><defs><linearGradient id="sw-gradient-3" x1="0" x2="0" y1="1" y2="0"><stop stop-color="rgba(243, 106, 62, 1)" offset="0%"/><stop stop-color="rgba(255, 179, 11, 1)" offset="100%"/></linearGradient></defs><path style="transform:translate(0, 150px); opacity:0.7" fill="url(#sw-gradient-3)" d="M0,294L90,147L180,49L270,392L360,294L450,147L540,98L630,196L720,294L810,196L900,245L990,392L1080,49L1170,294L1260,196L1350,196L1440,98L1530,147L1620,147L1710,441L1800,343L1890,147L1980,98L2070,392L2160,49L2160,490L2070,490L1980,490L1890,490L1800,490L1710,490L1620,490L1530,490L1440,490L1350,490L1260,490L1170,490L1080,490L990,490L900,490L810,490L720,490L630,490L540,490L450,490L360,490L270,490L180,490L90,490L0,490Z"/></svg>