<?xml version="1.0" standalone="no"?>
<svg xmlns:xlink="http://www.w3.org/1999/xlink" id="wave" style="transform:rotate(0deg); transition: 0.3s" viewBox="0 0 1440 490" version="1.1" xmlns="http://www.w3.org/2000/svg"><defs><linearGradient id="sw-gradient-0" x1="0" x2="0" y1="1" y2="0"><stop stop-color="rgba(243, 106, 62, 1)" offset="0%"/><stop stop-color="rgba(125.579, 99.433, 41.636, 1)" offset="100%"/></linearGradient></defs><path style="transform:translate(0, 0px); opacity:1" fill="url(#sw-gradient-0)" d="M0,49L60,392L120,343L180,245L240,245L300,392L360,0L420,0L480,196L540,196L600,49L660,49L720,294L780,392L840,98L900,392L960,196L1020,98L1080,245L1140,441L1200,98L1260,98L1320,49L1380,0L1440,196L1440,490L1380,490L1320,490L1260,490L1200,490L1140,490L1080,490L1020,490L960,490L900,490L840,490L780,490L720,490L660,490L600,490L540,490L480,490L420,490L360,490L300,490L240,490L180,490L120,490L60,490L0,490Z"/><defs><linearGradient id="sw-gradient-1" x1="0" x2="0" y1="1" y2="0"><stop stop-color="rgba(243, 106, 62, 1)" offset="0%"/><stop stop-color="rgba(205.266, 152.421, 35.604, 1)" offset="100%"/></linearGradient></defs><path style="transform:translate(0, 50px); opacity:0.9" fill="url(#sw-gradient-1)" d="M0,147L60,49L120,441L180,343L240,441L300,441L360,147L420,392L480,392L540,343L600,245L660,147L720,147L780,0L840,196L900,196L960,49L1020,196L1080,98L1140,294L1200,196L1260,392L1320,98L1380,98L1440,441L1440,490L1380,490L1320,490L1260,490L1200,490L1140,490L1080,490L1020,490L960,490L900,490L840,490L780,490L720,490L660,490L600,490L540,490L480,490L420,490L360,490L300,490L240,490L180,490L120,490L60,490L0,490Z"/><defs><linearGradient id="sw-gradient-2" x1="0" x2="0" y1="1" y2="0"><stop stop-color="rgba(243, 106, 62, 1)" offset="0%"/><stop stop-color="rgba(255, 179, 11, 1)" offset="100%"/></linearGradient></defs><path style="transform:translate(0, 100px); opacity:0.8" fill="url(#sw-gradient-2)" d="M0,98L60,441L120,98L180,294L240,343L300,343L360,0L420,294L480,294L540,49L600,98L660,49L720,392L780,441L840,343L900,98L960,49L1020,147L1080,147L1140,245L1200,343L1260,294L1320,441L1380,343L1440,441L1440,490L1380,490L1320,490L1260,490L1200,490L1140,490L1080,490L1020,490L960,490L900,490L840,490L780,490L720,490L660,490L600,490L540,490L480,490L420,490L360,490L300,490L240,490L180,490L120,490L60,490L0,490Z"/><defs><linearGradient id="sw-gradient-3" x1="0" x2="0" y1="1" y2="0"><stop stop-color="rgba(243, 106, 62, 1)" offset="0%"/><stop stop-color="rgba(255, 179, 11, 1)" offset="100%"/></linearGradient></defs><path style="transform:translate(0, 150px); opacity:0.7" fill="url(#sw-gradient-3)" d="M0,343L60,343L120,0L180,147L240,343L300,441L360,441L420,441L480,147L540,441L600,196L660,49L720,441L780,343L840,392L900,294L960,245L1020,0L1080,147L1140,392L1200,392L1260,196L1320,392L1380,294L1440,392L1440,490L1380,490L1320,490L1260,490L1200,490L1140,490L1080,490L1020,490L960,490L900,490L840,490L780,490L720,490L660,490L600,490L540,490L480,490L420,490L360,490L300,490L240,490L180,490L120,490L60,490L0,490Z"/></svg>