<?xml version="1.0" standalone="no"?>
<svg xmlns:xlink="http://www.w3.org/1999/xlink" id="wave" style="transform:rotate(0deg); transition: 0.3s" viewBox="0 0 1440 400" version="1.1" xmlns="http://www.w3.org/2000/svg"><defs><linearGradient id="sw-gradient-0" x1="0" x2="0" y1="1" y2="0"><stop stop-color="rgba(243, 106, 62, 1)" offset="0%"/><stop stop-color="rgba(8.704, 7.458, 4.704, 1)" offset="100%"/></linearGradient></defs><path style="transform:translate(0, 0px); opacity:1" fill="url(#sw-gradient-0)" d="M0,320L60,320L120,360L180,80L240,320L300,320L360,200L420,0L480,80L540,200L600,240L660,360L720,240L780,280L840,240L900,240L960,40L1020,320L1080,320L1140,0L1200,280L1260,240L1320,240L1380,0L1440,120L1440,400L1380,400L1320,400L1260,400L1200,400L1140,400L1080,400L1020,400L960,400L900,400L840,400L780,400L720,400L660,400L600,400L540,400L480,400L420,400L360,400L300,400L240,400L180,400L120,400L60,400L0,400Z"/><defs><linearGradient id="sw-gradient-1" x1="0" x2="0" y1="1" y2="0"><stop stop-color="rgba(243, 106, 62, 1)" offset="0%"/><stop stop-color="rgba(255, 179, 11, 1)" offset="100%"/></linearGradient></defs><path style="transform:translate(0, 50px); opacity:0.9" fill="url(#sw-gradient-1)" d="M0,280L60,240L120,120L180,240L240,80L300,120L360,0L420,160L480,120L540,360L600,80L660,200L720,240L780,240L840,0L900,280L960,360L1020,120L1080,160L1140,320L1200,120L1260,240L1320,40L1380,200L1440,240L1440,400L1380,400L1320,400L1260,400L1200,400L1140,400L1080,400L1020,400L960,400L900,400L840,400L780,400L720,400L660,400L600,400L540,400L480,400L420,400L360,400L300,400L240,400L180,400L120,400L60,400L0,400Z"/><defs><linearGradient id="sw-gradient-2" x1="0" x2="0" y1="1" y2="0"><stop stop-color="rgba(243, 106, 62, 1)" offset="0%"/><stop stop-color="rgba(255, 204.15, 91.744, 1)" offset="100%"/></linearGradient></defs><path style="transform:translate(0, 100px); opacity:0.8" fill="url(#sw-gradient-2)" d="M0,40L60,200L120,0L180,0L240,320L300,80L360,360L420,120L480,280L540,80L600,240L660,200L720,120L780,200L840,80L900,240L960,240L1020,80L1080,120L1140,160L1200,200L1260,160L1320,40L1380,80L1440,240L1440,400L1380,400L1320,400L1260,400L1200,400L1140,400L1080,400L1020,400L960,400L900,400L840,400L780,400L720,400L660,400L600,400L540,400L480,400L420,400L360,400L300,400L240,400L180,400L120,400L60,400L0,400Z"/><defs><linearGradient id="sw-gradient-3" x1="0" x2="0" y1="1" y2="0"><stop stop-color="rgba(243, 106, 62, 1)" offset="0%"/><stop stop-color="rgba(255, 179, 11, 1)" offset="100%"/></linearGradient></defs><path style="transform:translate(0, 150px); opacity:0.7" fill="url(#sw-gradient-3)" d="M0,200L60,200L120,40L180,40L240,360L300,360L360,200L420,320L480,160L540,320L600,280L660,280L720,240L780,40L840,200L900,240L960,160L1020,120L1080,320L1140,320L1200,120L1260,280L1320,320L1380,0L1440,280L1440,400L1380,400L1320,400L1260,400L1200,400L1140,400L1080,400L1020,400L960,400L900,400L840,400L780,400L720,400L660,400L600,400L540,400L480,400L420,400L360,400L300,400L240,400L180,400L120,400L60,400L0,400Z"/></svg>