<?xml version="1.0" standalone="no"?>
<svg xmlns:xlink="http://www.w3.org/1999/xlink" id="wave" style="transform:rotate(180deg); transition: 0.3s" viewBox="0 0 1440 490" version="1.1" xmlns="http://www.w3.org/2000/svg"><defs><linearGradient id="sw-gradient-0" x1="0" x2="0" y1="1" y2="0"><stop stop-color="rgba(243, 106, 62, 1)" offset="0%"/><stop stop-color="rgba(255, 179, 11, 1)" offset="100%"/></linearGradient></defs><path style="transform:translate(0, 0px); opacity:1" fill="url(#sw-gradient-0)" d="M0,392L90,147L180,294L270,98L360,343L450,0L540,441L630,441L720,196L810,49L900,343L990,294L1080,294L1170,245L1260,0L1350,98L1440,98L1530,392L1620,343L1710,49L1800,49L1890,294L1980,392L2070,441L2160,0L2160,490L2070,490L1980,490L1890,490L1800,490L1710,490L1620,490L1530,490L1440,490L1350,490L1260,490L1170,490L1080,490L990,490L900,490L810,490L720,490L630,490L540,490L450,490L360,490L270,490L180,490L90,490L0,490Z"/></svg>